<svg width="18" height="16" viewBox="0 0 18 16" fill="none" xmlns="http://www.w3.org/2000/svg">
<path d="M15.75 0.125H1.75C1.28587 0.125 0.840752 0.309374 0.512563 0.637563C0.184374 0.965752 0 1.41087 0 1.875V14.125C0 14.5891 0.184374 15.0342 0.512563 15.3624C0.840752 15.6906 1.28587 15.875 1.75 15.875H15.75C16.2141 15.875 16.6592 15.6906 16.9874 15.3624C17.3156 15.0342 17.5 14.5891 17.5 14.125V1.875C17.5 1.41087 17.3156 0.965752 16.9874 0.637563C16.6592 0.309374 16.2141 0.125 15.75 0.125ZM7.875 12.375H2.625V10.625H7.875V12.375ZM14.875 8.875H2.625V7.125H14.875V8.875ZM14.875 5.375H2.625V3.625H14.875V5.375Z" fill="url(#paint0_linear_72_1485)"/>
<defs>
<linearGradient id="paint0_linear_72_1485" x1="8.75" y1="0.125" x2="8.75" y2="15.875" gradientUnits="userSpaceOnUse">
<stop stop-color="#0052D4"/>
<stop offset="1" stop-color="#5195FF"/>
</linearGradient>
</defs>
</svg>
