<svg width="20" height="17" viewBox="0 0 20 17" fill="none" xmlns="http://www.w3.org/2000/svg">
<path d="M2 16.1665C1.45 16.1665 0.979333 15.9708 0.588 15.5795C0.196 15.1875 0 14.7165 0 14.1665V2.1665C0 1.6165 0.196 1.14584 0.588 0.754504C0.979333 0.362504 1.45 0.166504 2 0.166504H18C18.55 0.166504 19.021 0.362504 19.413 0.754504C19.8043 1.14584 20 1.6165 20 2.1665V14.1665C20 14.7165 19.8043 15.1875 19.413 15.5795C19.021 15.9708 18.55 16.1665 18 16.1665H2ZM10 8.9915C10.0833 8.9915 10.1707 8.97884 10.262 8.9535C10.354 8.92884 10.4417 8.8915 10.525 8.8415L17.6 4.4165C17.7333 4.33317 17.8333 4.22917 17.9 4.1045C17.9667 3.97917 18 3.8415 18 3.6915C18 3.35817 17.8583 3.10817 17.575 2.9415C17.2917 2.77484 17 2.78317 16.7 2.9665L10 7.1665L3.3 2.9665C3 2.78317 2.70833 2.77884 2.425 2.9535C2.14167 3.12884 2 3.37484 2 3.6915C2 3.85817 2.03333 4.00384 2.1 4.1285C2.16667 4.25384 2.26667 4.34984 2.4 4.4165L9.475 8.8415C9.55833 8.8915 9.646 8.92884 9.738 8.9535C9.82933 8.97884 9.91667 8.9915 10 8.9915Z" fill="#F9D423"/>
</svg>
