<svg width="18" height="19" viewBox="0 0 18 19" fill="none" xmlns="http://www.w3.org/2000/svg">
<path d="M16.95 18.1665C14.8 18.1665 12.7043 17.6872 10.663 16.7285C8.621 15.7705 6.81267 14.5038 5.238 12.9285C3.66267 11.3538 2.396 9.5455 1.438 7.5035C0.479334 5.46217 0 3.3665 0 1.2165C0 0.916504 0.0999999 0.666504 0.3 0.466504C0.5 0.266504 0.75 0.166504 1.05 0.166504H5.1C5.33333 0.166504 5.54167 0.241504 5.725 0.391504C5.90833 0.541504 6.01667 0.733171 6.05 0.966504L6.7 4.4665C6.73333 4.69984 6.72933 4.91217 6.688 5.1035C6.646 5.2955 6.55 5.4665 6.4 5.6165L4 8.0665C4.7 9.2665 5.575 10.3915 6.625 11.4415C7.675 12.4915 8.83333 13.3998 10.1 14.1665L12.45 11.8165C12.6 11.6665 12.796 11.5538 13.038 11.4785C13.2793 11.4038 13.5167 11.3832 13.75 11.4165L17.2 12.1165C17.4333 12.1665 17.625 12.2788 17.775 12.4535C17.925 12.6288 18 12.8332 18 13.0665V17.1165C18 17.4165 17.9 17.6665 17.7 17.8665C17.5 18.0665 17.25 18.1665 16.95 18.1665Z" fill="#38EF7D"/>
</svg>
