<svg width="13" height="18" viewBox="0 0 13 18" fill="none" xmlns="http://www.w3.org/2000/svg">
<path d="M0 18C0 16.1814 0.68482 14.4372 1.90381 13.1513C3.12279 11.8653 4.77609 11.1429 6.5 11.1429C8.22391 11.1429 9.87721 11.8653 11.0962 13.1513C12.3152 14.4372 13 16.1814 13 18H11.375C11.375 16.636 10.8614 15.3279 9.94715 14.3635C9.03291 13.399 7.79293 12.8571 6.5 12.8571C5.20707 12.8571 3.96709 13.399 3.05285 14.3635C2.13861 15.3279 1.625 16.636 1.625 18H0ZM6.5 10.2857C3.80656 10.2857 1.625 7.98429 1.625 5.14286C1.625 2.30143 3.80656 0 6.5 0C9.19344 0 11.375 2.30143 11.375 5.14286C11.375 7.98429 9.19344 10.2857 6.5 10.2857ZM6.5 8.57143C8.29562 8.57143 9.75 7.03714 9.75 5.14286C9.75 3.24857 8.29562 1.71429 6.5 1.71429C4.70437 1.71429 3.25 3.24857 3.25 5.14286C3.25 7.03714 4.70437 8.57143 6.5 8.57143Z" fill="#0052D4"/>
</svg>
