<svg width="36" height="26" viewBox="0 0 36 26" fill="none" xmlns="http://www.w3.org/2000/svg">
<path fill-rule="evenodd" clip-rule="evenodd" d="M25.92 0H0V21.6667H0.72H2.88H2.93103C3.2804 24.1166 5.38093 26 7.92 26C10.4591 26 12.5596 24.1166 12.909 21.6667H23.0911C23.4403 24.1166 25.541 26 28.08 26C30.619 26 32.7197 24.1166 33.0689 21.6667H36V12.4016L29.3965 5.77778H25.92V0ZM25.92 8.66667V16.3754C26.5747 16.0634 27.307 15.8889 28.08 15.8889C30.0904 15.8889 31.8261 17.0697 32.635 18.7778H33.12V13.5984L28.2035 8.66667H25.92ZM23.04 18.7778V5.77778V2.88889H2.88V18.7778H3.36501C4.17391 17.0697 5.90947 15.8889 7.92 15.8889C9.93053 15.8889 11.6661 17.0697 12.475 18.7778H23.04ZM28.08 23.1111C26.8871 23.1111 25.92 22.141 25.92 20.9444C25.92 19.7479 26.8871 18.7778 28.08 18.7778C29.2729 18.7778 30.24 19.7479 30.24 20.9444C30.24 22.141 29.2729 23.1111 28.08 23.1111ZM10.08 20.9444C10.08 22.141 9.11293 23.1111 7.92 23.1111C6.72707 23.1111 5.76 22.141 5.76 20.9444C5.76 19.7479 6.72707 18.7778 7.92 18.7778C9.11293 18.7778 10.08 19.7479 10.08 20.9444Z" fill="url(#paint0_linear_80_1607)"/>
<defs>
<linearGradient id="paint0_linear_80_1607" x1="0" y1="13" x2="36" y2="13" gradientUnits="userSpaceOnUse">
<stop stop-color="#FF6C6C"/>
<stop offset="1" stop-color="#FF0000"/>
</linearGradient>
</defs>
</svg>
